<?xml version="1.0"?>
<svg xmlns="http://www.w3.org/2000/svg" xmlns:xlink="http://www.w3.org/1999/xlink" xmlns:svgjs="http://svgjs.com/svgjs" version="1.1" width="512" height="512" x="0" y="0" viewBox="0 0 497 497" style="enable-background:new 0 0 512 512" xml:space="preserve" class=""><g><g xmlns="http://www.w3.org/2000/svg"><path d="m332.325 199.804 4.953-70.518h-54.819l-97.574 95.54 17.741 45.495c56.088 16.221 107.863-20.572 129.699-70.517z" fill="#8dbbc8" data-original="#938dc8" style="" class=""/><path d="m326.278 190.808c-21.836 49.946-64.542 78.091-123.652 79.514l6.266 16.068c61.57 0 105.97-28.311 128.386-79.582v-77.522z" fill="#2761cc" data-original="#7f78bd" style="" class=""/><path d="m135.96 386.942c1.558.675 3.152 1.33 4.822 1.939 36.524 13.324 58.2 4.364 72.414-34.601 0 0 16.675-9.339 18.06-13.65 1.304-4.06-2.953-10.257-7.225-16.054 2.216-6.074 5.658-16.827 7.631-24.127z" fill="#d79b8c" data-original="#d79b8c" style="" class=""/><path d="m231.663 300.449c.222-.82.43-1.609.611-2.33.814-3.248-.963-6.581-4.109-7.729l-43.861-16-80.494 77.758c3.31 14.61 13.948 26.907 32.15 34.794 25.205-19.494 58.732-48.049 95.703-86.493z" fill="#c38778" data-original="#c38778" style=""/><path d="m224.49 259.781c6.336-6.865 7.773-21.015 7.773-30.67-4.484-4.31-10.959-7.129-18.718-7.684 0 0-19.741-.109-28.659 3.399l-8.694 8.492c-10.748 10.288-17.288 24.205-18.349 39.045l-101.151 99.027-51.793 16.44c-7.641 2.426-5.894 13.703 2.123 13.703l65.445-10c.001 0 66.784-39.395 152.023-131.752z" fill="#e0aea2" data-original="#e0aea2" style="" class=""/><path d="m232.263 229.111c-3.627 7.793-8.438 15.806-14.773 22.67-78.959 85.552-140.365 127.376-148.985 133.074-.678.448-1.422.78-2.208.988l-59.275 15.69h56.691c5.883 0 11.637-1.694 16.572-4.897 20.645-13.399 79.766-54.701 148.205-128.855 13.733-14.88 12.909-29.887 3.773-38.67z" fill="#d79b8c" data-original="#d79b8c" style="" class=""/><path d="m347.168 96.773c-14.977-3.576-31.627.094-43.938 12.157l-20.771 20.355 135.331 191.378 41.565-2.386z" fill="#47c84e" data-original="#edf6ff" style="" class=""/><path d="m459.356 300.239-80.239-177.094c-6.39-14.103-18.494-23.159-31.949-26.371l95.83 211.504 16.358 10z" fill="#d4ffcd" data-original="#cde2ff" style="" class=""/><path d="m442.998 308.278-25.207 12.386 29.788 42.124-42.217 23.114c-7.561 4.14-4.621 15.631 3.999 15.631l75.516-12.895z" fill="#e0aea2" data-original="#e0aea2" style="" class=""/><path d="m495.645 380.333-36.289-80.094-16.358 8.038 30.3 66.874c.849 1.873-.092 4.07-2.033 4.749l-61.903 21.633h72.615c10.905 0 18.169-11.266 13.668-21.2z" fill="#d79b8c" data-original="#d79b8c" style="" class=""/></g></g></svg>
