<?xml version="1.0" standalone="no"?>
<svg viewBox="0 0 200 200" xmlns="http://www.w3.org/2000/svg">
  <path fill="#08BDBA" d="M46.9,-72.9C59.1,-65.2,66.1,-49.3,69.4,-34.1C72.7,-18.8,72.3,-4.2,71.1,10.9C69.9,26,68,41.6,59.1,50.4C50.2,59.1,34.3,61.1,19.2,65.7C4.1,70.2,-10.4,77.4,-25.1,77C-39.9,76.6,-55,68.7,-63.7,56.4C-72.3,44.2,-74.5,27.6,-75.6,11.7C-76.6,-4.3,-76.6,-19.6,-71.9,-34C-67.2,-48.5,-57.9,-62,-45.1,-69.5C-32.3,-77,-16.2,-78.5,0.6,-79.4C17.4,-80.3,34.7,-80.7,46.9,-72.9Z" transform="translate(100 100)" />
</svg>
