<?xml version="1.0" standalone="no"?>
<!DOCTYPE svg PUBLIC "-//W3C//DTD SVG 20010904//EN"
 "http://www.w3.org/TR/2001/REC-SVG-20010904/DTD/svg10.dtd">
<svg version="1.0" xmlns="http://www.w3.org/2000/svg"
 width="70.000000pt" height="70.000000pt" viewBox="0 0 70.000000 70.000000"
 preserveAspectRatio="xMidYMid meet">
<metadata>
Created by potrace 1.14, written by Peter Selinger 2001-2017
</metadata>
<g transform="translate(0.000000,70.000000) scale(0.100000,-0.100000)"
fill="#000000" stroke="none">
<path d="M9 695 c-7 -6 4 -64 21 -111 l10 -29 -20 24 c-27 31 -26 11 1 -24 13
-15 22 -40 21 -58 -1 -29 0 -30 11 -12 14 26 36 140 35 185 0 24 -4 13 -13
-35 l-12 -70 -2 70 c-2 49 -5 64 -11 50 -5 -11 -9 -33 -9 -49 -1 -39 -10 -28
-19 23 -4 24 -10 40 -13 36z"/>
<path d="M110 681 c0 -12 17 -30 45 -48 25 -15 45 -34 45 -41 0 -7 5 -10 11
-7 6 4 7 19 4 36 -5 20 -1 38 9 54 15 22 15 25 1 25 -8 0 -15 -6 -15 -12 0 -9
-4 -8 -10 2 -9 13 -11 13 -20 0 -9 -13 -10 -13 -10 0 0 13 -1 13 -10 0 -6 -10
-10 -11 -10 -2 0 6 -9 12 -20 12 -13 0 -20 -7 -20 -19z m77 -43 c-3 -8 -6 -5
-6 6 -1 11 2 17 5 13 3 -3 4 -12 1 -19z"/>
<path d="M337 656 c3 -26 1 -46 -6 -50 -7 -5 -11 3 -12 21 l0 28 -10 -25 c-6
-14 -12 -51 -13 -83 -2 -31 -6 -60 -10 -64 -3 -3 -6 -17 -6 -30 0 -13 -5 -23
-10 -23 -6 0 -10 -18 -9 -43 2 -24 -1 -49 -6 -57 -6 -10 -3 -12 13 -8 14 4 23
0 27 -11 6 -15 7 -14 16 2 6 9 12 34 14 55 2 20 7 53 11 73 4 26 1 40 -10 52
-18 18 -21 37 -5 37 6 0 22 9 36 20 33 26 38 25 52 -8 13 -30 1 -82 -19 -82
-5 0 -10 -4 -10 -10 0 -5 6 -7 14 -4 7 3 20 -1 27 -8 8 -7 26 -21 41 -31 22
-13 29 -27 34 -67 7 -50 7 -51 30 -35 15 9 24 11 24 5 0 -7 9 -9 22 -4 21 6
21 5 9 -10 -10 -12 -17 -14 -24 -7 -14 14 -47 -15 -47 -40 0 -20 49 -81 50
-62 0 6 13 14 28 18 30 6 112 80 112 99 0 6 -12 -2 -25 -17 -29 -33 -30 -31
-10 17 8 20 12 36 7 36 -4 0 -14 -15 -20 -34 -12 -33 -73 -96 -92 -96 -23 0
-7 34 36 75 25 25 42 45 37 45 -5 0 -14 -5 -20 -11 -13 -13 -36 -2 -27 13 4 6
-1 8 -15 3 -19 -6 -21 -2 -21 29 0 30 4 36 34 47 30 11 45 31 46 62 0 17 -51
5 -79 -19 l-30 -25 10 30 c12 34 26 40 92 43 35 2 47 6 46 18 0 9 -2 10 -5 3
-3 -7 -12 -9 -20 -6 -13 5 -12 8 2 24 10 11 12 19 6 19 -7 0 -12 -6 -12 -12 0
-10 -3 -9 -9 1 -6 8 -16 11 -31 6 -15 -5 -20 -4 -16 4 4 6 16 11 27 11 28 0
59 36 59 70 0 22 -4 28 -15 24 -8 -4 -13 -10 -10 -14 3 -4 -3 -14 -13 -21 -15
-13 -16 -12 -3 4 7 9 9 17 4 17 -15 0 -33 -23 -33 -41 0 -9 -7 -22 -15 -29
-13 -11 -15 -8 -15 16 0 18 -7 34 -19 41 -27 17 -34 -5 -14 -45 10 -21 13 -41
8 -59 -8 -27 -8 -27 -17 15 l-9 43 -21 -26 c-15 -19 -19 -34 -14 -58 3 -18 8
-50 10 -72 5 -39 5 -40 -3 -4 -4 20 -17 49 -28 65 -17 24 -20 39 -16 71 6 47
-4 133 -16 133 -4 0 -6 -25 -3 -56 3 -41 2 -55 -7 -50 -6 4 -11 22 -12 39 0
18 -5 41 -10 52 -7 15 -8 8 -5 -27 4 -52 4 -53 -25 -38 -13 8 -19 21 -19 45 0
19 -4 35 -9 35 -5 0 -6 -20 -4 -44z m200 -264 c0 -10 -9 -18 -19 -18 -21 0
-23 7 -6 24 17 17 27 15 25 -6z"/>
<path d="M631 684 c0 -11 3 -14 6 -6 3 7 2 16 -1 19 -3 4 -6 -2 -5 -13z"/>
<path d="M680 654 c0 -21 5 -46 10 -54 7 -10 8 1 4 35 -8 62 -14 70 -14 19z"/>
<path d="M230 571 c0 -8 -7 -11 -17 -6 -15 5 -16 4 -5 -6 9 -10 15 -10 24 -1
6 6 9 15 5 19 -4 3 -7 1 -7 -6z"/>
<path d="M252 555 c-11 -12 -10 -15 3 -15 8 0 15 7 15 15 0 18 -2 18 -18 0z"/>
<path d="M676 555 c4 -8 10 -15 15 -15 4 0 6 7 3 15 -4 8 -10 15 -15 15 -4 0
-6 -7 -3 -15z"/>
<path d="M206 531 c-3 -5 1 -11 9 -15 15 -6 29 7 18 18 -9 9 -21 8 -27 -3z"/>
<path d="M5 485 c3 -48 9 -63 20 -46 3 6 2 11 -3 11 -6 0 -7 14 -2 34 4 19 5
37 2 40 -14 14 -19 2 -17 -39z"/>
<path d="M177 503 c-14 -13 -6 -32 12 -30 16 1 18 4 8 17 -6 8 -12 16 -13 18
0 1 -4 -1 -7 -5z"/>
<path d="M195 449 c-4 -6 -14 -8 -24 -4 -13 5 -14 4 -3 -6 10 -11 15 -10 29 4
10 9 14 17 11 17 -4 0 -10 -5 -13 -11z"/>
<path d="M690 450 c0 -5 0 -13 1 -17 0 -4 -7 -10 -15 -13 -14 -5 -14 -7 2 -16
15 -10 17 -7 18 22 1 19 0 34 -2 34 -2 0 -4 -4 -4 -10z"/>
<path d="M406 427 c3 -10 9 -15 12 -12 3 3 0 11 -7 18 -10 9 -11 8 -5 -6z"/>
<path d="M155 412 c-6 -4 -11 -16 -13 -27 -3 -18 -2 -18 13 3 17 24 17 36 0
24z"/>
<path d="M181 394 c0 -11 3 -14 6 -6 3 7 2 16 -1 19 -3 4 -6 -2 -5 -13z"/>
<path d="M210 400 c-9 -6 -10 -10 -3 -10 6 0 15 5 18 10 8 12 4 12 -15 0z"/>
<path d="M120 373 c0 -6 5 -15 11 -19 6 -3 9 -15 6 -25 -3 -11 -1 -17 4 -13 5
3 9 -2 9 -10 0 -8 -5 -18 -11 -22 -6 -3 -9 -19 -7 -35 3 -16 0 -25 -5 -22 -5
3 -7 21 -4 39 3 19 2 34 -3 34 -4 0 -11 7 -14 16 -3 8 -2 12 4 9 6 -3 7 1 4
10 -12 30 -39 12 -42 -27 -2 -28 2 -42 17 -55 29 -24 26 -37 -3 -17 -14 8 -34
14 -45 12 -18 -3 -19 -6 -8 -28 9 -17 23 -27 46 -30 35 -5 56 -30 27 -30 -9 0
-16 -7 -16 -15 0 -10 -10 -15 -29 -15 -17 0 -33 -5 -36 -10 -4 -6 -11 -8 -16
-5 -5 4 -9 1 -9 -4 0 -6 7 -11 16 -11 8 0 13 -4 10 -9 -3 -5 1 -11 9 -15 9 -3
15 -18 15 -38 0 -32 1 -33 43 -34 23 -1 31 0 17 3 -14 3 -31 10 -37 15 -17 13
-17 45 0 51 6 3 2 6 -10 6 -16 1 -23 7 -23 20 0 15 8 21 33 23 17 2 32 7 32
12 0 6 17 26 39 46 21 20 40 47 41 61 2 13 6 38 9 54 5 23 4 26 -3 10 -5 -11
-10 -14 -10 -7 -1 7 -6 10 -12 6 -8 -4 -9 1 -4 17 5 19 4 21 -4 9 -9 -13 -11
-13 -11 2 0 9 8 19 18 21 9 2 7 3 -6 2 -12 -1 -27 5 -32 14 -5 9 -10 11 -10 4z
m53 -148 c-3 -9 -8 -14 -10 -11 -3 3 -2 9 2 15 9 16 15 13 8 -4z"/>
<path d="M202 360 c0 -14 2 -19 5 -12 2 6 2 18 0 25 -3 6 -5 1 -5 -13z"/>
<path d="M600 346 c6 -6 18 -5 32 1 21 10 21 10 -9 9 -19 -1 -28 -5 -23 -10z"/>
<path d="M251 289 c-1 -23 24 -52 40 -46 11 4 10 6 -3 6 -9 1 -21 13 -26 29
-6 15 -11 20 -11 11z"/>
<path d="M441 283 c-1 -12 -4 -30 -8 -40 -6 -17 -6 -17 10 -1 13 12 15 22 8
40 -10 23 -10 23 -10 1z"/>
<path d="M459 228 c-5 -23 -7 -30 -8 -45 -2 -16 -4 -16 -12 2 -8 17 -9 17 -4
-5 3 -14 8 -35 11 -47 5 -18 2 -23 -12 -23 -9 0 -15 -3 -11 -6 3 -3 14 -3 25
0 14 5 18 13 15 30 -3 13 -1 32 5 42 5 11 6 28 1 39 -4 11 -8 17 -10 13z"/>
<path d="M217 188 c-3 -9 -33 -35 -66 -58 -34 -22 -61 -43 -61 -46 0 -3 10 2
22 10 12 9 42 16 67 16 24 0 41 3 38 7 -4 3 -1 16 7 27 7 12 10 30 6 40 -6 17
-7 17 -13 4z"/>
<path d="M6 164 c-11 -28 -6 -39 9 -20 8 11 15 23 15 28 0 14 -18 9 -24 -8z"/>
<path d="M247 148 c-12 -28 -12 -34 0 -41 8 -5 19 -6 26 -3 7 2 4 5 -5 5 -21
1 -22 9 -8 45 14 38 2 32 -13 -6z"/>
<path d="M288 173 c7 -3 16 -2 19 1 4 3 -2 6 -13 5 -11 0 -14 -3 -6 -6z"/>
<path d="M353 173 c15 -2 37 -2 50 0 12 2 0 4 -28 4 -27 0 -38 -2 -22 -4z"/>
<path d="M650 154 c0 -21 -4 -25 -20 -21 -11 3 -20 1 -20 -4 0 -5 13 -9 28 -9
26 0 28 3 24 30 -5 37 -12 39 -12 4z"/>
<path d="M528 137 c12 -14 9 -16 -20 -20 -26 -3 -23 -4 15 -5 26 -1 47 0 47 2
0 2 -12 12 -27 22 -23 14 -26 14 -15 1z"/>
<path d="M674 122 c-11 -10 -18 -24 -16 -31 3 -10 -2 -12 -21 -9 -24 5 -25 4
-12 -15 10 -14 11 -25 4 -39 -13 -25 13 -35 49 -18 17 8 22 14 14 17 -8 3 -19
0 -25 -6 -6 -6 -14 -11 -18 -11 -11 0 2 43 17 61 8 9 11 19 7 23 -4 4 0 4 9 1
12 -5 16 0 16 19 0 14 -1 26 -2 26 0 -1 -10 -8 -22 -18z"/>
<path d="M175 70 c22 -5 56 -12 75 -14 l35 -5 -35 10 c-19 6 -53 12 -75 14
l-40 4 40 -9z"/>
<path d="M350 78 c0 -2 14 -15 31 -27 18 -13 29 -19 25 -13 -6 10 45 21 116
25 20 1 34 6 31 11 -5 8 -33 5 -118 -12 -29 -6 -46 -4 -62 6 -13 8 -23 12 -23
10z"/>
<path d="M12 30 c0 -19 2 -27 5 -17 2 9 2 25 0 35 -3 9 -5 1 -5 -18z"/>
<path d="M310 50 c-15 -5 -19 -8 -8 -9 9 -1 18 -11 20 -23 3 -19 5 -17 9 10 3
17 5 32 5 31 -1 -1 -12 -5 -26 -9z"/>
<path d="M466 17 c3 -10 9 -15 12 -12 3 3 0 11 -7 18 -10 9 -11 8 -5 -6z"/>
</g>
</svg>
